<?xml version="1.0" standalone="no"?>
<!DOCTYPE svg PUBLIC "-//W3C//DTD SVG 1.0//EN" "http://www.w3.org/TR/2001/REC-SVG-20010904/DTD/svg10.dtd">
<svg xmlns="http://www.w3.org/2000/svg" xmlns:xlink="http://www.w3.org/1999/xlink" id="body_1" width="25" height="25">

<g transform="matrix(0.5208334 0 0 0.5208334 0 0)">
	<g transform="matrix(0.75 0 0 0.75 0 0)">
		<g transform="matrix(0.1 0 -0 -0.1 0 48)">
            <path d="M60 361C 60 355 71 348 85 344C 103 340 112 328 119 301C 124 281 134 245 140 220C 147 195 157 172 162 169C 168 165 167 155 158 141C 140 112 158 85 195 85C 231 85 250 112 232 140C 221 159 222 160 257 160C 294 160 295 159 295 123C 295 86 296 85 330 85C 361 85 365 88 368 114C 370 130 367 147 361 153C 354 160 355 167 364 174C 376 184 410 290 410 318C 410 327 376 330 290 330C 191 330 170 327 170 315C 170 304 190 300 273 298L273 298L377 295L362 242L347 189L262 192L176 195L155 280L134 365L97 368C 76 370 60 367 60 361zM210 120C 210 115 203 110 195 110C 187 110 180 115 180 120C 180 126 187 130 195 130C 203 130 210 126 210 120zM340 120C 340 115 336 110 330 110C 325 110 320 115 320 120C 320 126 325 130 330 130C 336 130 340 126 340 120z" stroke="none" fill="#000000" fill-rule="nonzero" />
		</g>
	</g>
</g>
</svg>