<?xml version="1.0" standalone="no"?>
<!DOCTYPE svg PUBLIC "-//W3C//DTD SVG 20010904//EN"
 "http://www.w3.org/TR/2001/REC-SVG-20010904/DTD/svg10.dtd">
<svg version="1.0" xmlns="http://www.w3.org/2000/svg"
 width="48.000000pt" height="48.000000pt" viewBox="0 0 48.000000 48.000000"
 preserveAspectRatio="xMidYMid meet">

<g transform="translate(0.000000,48.000000) scale(0.100000,-0.100000)"
fill="#000000" stroke="none">
<path d="M20 435 c0 -8 9 -15 20 -15 25 0 31 -12 71 -148 27 -95 37 -115 57
-123 36 -14 195 -11 216 4 17 13 69 174 60 189 -3 4 -77 8 -164 8 l-158 0 -13
38 c-6 20 -16 43 -22 50 -14 18 -67 16 -67 -3z m239 -124 c9 -6 21 -5 33 2 25
16 52 -2 56 -36 2 -18 -7 -37 -31 -64 -32 -34 -37 -36 -61 -25 -26 11 -66 66
-66 89 0 15 28 43 43 43 7 0 18 -4 26 -9z"/>
<path d="M164 96 c-10 -26 4 -48 28 -44 33 4 33 52 0 56 -13 2 -25 -3 -28 -12z"/>
<path d="M324 96 c-10 -26 4 -48 28 -44 33 4 33 52 0 56 -13 2 -25 -3 -28 -12z"/>
</g>
</svg>
